PathFileType	4	(X/Y/Z)	CPRIT_Patient3_L_AnkleIso_Processed.TRC
DataRate	CameraRate	NumFrames	NumMarkers	Units	OrigDataRate	OrigDataStartFrame	OrigNumFrames
150.205761316872	150.205761316872	4	36	m	150.205761316872	1	       731
Frame#	Time	R.Heel			R.Midfoot.Superior			R.Midfoot.Lateral			R.Toe			L.Heel			L.Midfoot.Superior			L.Midfoot.Lateral			L.Toe			R.Shank.Superior			R.Shank.Inferior			R.Shank.Lateral			R.Shank.Posterior			L.Shank.Superior			L.Shank.Inferior			L.Shank.Posterior			L.Shank.Lateral			R.Patella			L.Patella			R.Thigh.Superior			R.Thigh.Lateral			R.Thigh.Inferior			L.Thigh.Superior			L.Thigh.Inferior			L.Thigh.Lateral			L.Asis			R.Asis			R.Shoulder			L.Shoulder			C7			J.Notch			Sternum			Thoracic			L.Elbow			L.Wrist			R.Elbow			R.Wrist			
		X1	Y1	Z1	X2	Y2	Z2	X3	Y3	Z3	X4	Y4	Z4	X5	Y5	Z5	X6	Y6	Z6	X7	Y7	Z7	X8	Y8	Z8	X9	Y9	Z9	X10	Y10	Z10	X11	Y11	Z11	X12	Y12	Z12	X13	Y13	Z13	X14	Y14	Z14	X15	Y15	Z15	X16	Y16	Z16	X17	Y17	Z17	X18	Y18	Z18	X19	Y19	Z19	X20	Y20	Z20	X21	Y21	Z21	X22	Y22	Z22	X23	Y23	Z23	X24	Y24	Z24	X25	Y25	Z25	X26	Y26	Z26	X27	Y27	Z27	X28	Y28	Z28	X29	Y29	Z29	X30	Y30	Z30	X31	Y31	Z31	X32	Y32	Z32	X33	Y33	Z33	X34	Y34	Z34	X35	Y35	Z35	X36	Y36	Z36	

1	0.000000000000	0.416260560217	0.049449679355	0.096312392761	0.571769746542	0.098748979773	0.167381357010	0.469511119145	0.037840195303	0.175880416213	0.677400324203	0.055570955857	0.217890144931	0.759513874541	0.058103820289	-0.042651288356	0.874578020831	0.190106985472	-0.075910791729	0.838155557990	0.079213756611	-0.098306595718	0.995073705800	0.220745429591	-0.075842524132	0.529791290553	0.359421642809	0.181005744085	0.520670308027	0.239742309297	0.172571725343	0.441340505105	0.293993941349	0.210274204936	0.395342614358	0.359839150787	0.141721619816	0.752177486676	0.422466314152	-0.083289154095	0.783291097144	0.296458909752	-0.075419669017	0.627299246988	0.354101244681	-0.065755211602	0.707819455895	0.317861291456	-0.124505082868	0.562222088784	0.465939830090	0.170771894331	0.733172724950	0.541855727216	-0.073718260128	0.620734347794	0.777630071067	0.191396931535	0.530339088875	0.710306984553	0.240103712641	0.607544523757	0.617125593852	0.164777959514	0.649326795334	0.822498752516	-0.084311115829	0.703478906275	0.681980290353	-0.062112909235	0.581749885855	0.729170873253	-0.135352598222	0.599254131441	0.951492183936	-0.061070947069	0.619792463820	0.937830280105	0.175442245788	0.538999853077	1.461218479827	0.208830970237	0.572178175377	1.435839541668	-0.108359755620	0.519030920265	1.482789307655	0.062578867538	0.624159592709	1.371901536889	0.060302441496	0.666048197241	1.192049981744	0.054506414804	0.415580771517	1.331074432575	0.059636822384	0.527373040825	1.177526651397	-0.294996281085	0.613567656651	0.987786227041	-0.433228113058	0.502241788425	1.185202553131	0.406488347515	0.661234266074	0.988343390522	0.415918720757	
2	0.006657534247	0.416261200989	0.049449693693	0.096310918804	0.571768298161	0.098751263694	0.167383755782	0.469511871095	0.037840687814	0.175882496854	0.677403232664	0.055571473455	0.217889092279	0.759720559789	0.057938143097	-0.041987690873	0.874036245867	0.190155929072	-0.076768718539	0.837307153390	0.079296578513	-0.098804399697	0.994331317736	0.220858450247	-0.078701912138	0.529776699859	0.359424541513	0.181019209496	0.520664156158	0.239747567912	0.172576367566	0.441333047164	0.293992993848	0.210285131493	0.395323499148	0.359835751293	0.141730653704	0.752081210883	0.422428534009	-0.083260835787	0.783160738816	0.296416070411	-0.075440925826	0.627256893263	0.354090543884	-0.065589753515	0.707683922594	0.317806608498	-0.124455734076	0.562206652598	0.465947563536	0.170795494334	0.733100485975	0.541816958452	-0.073738359358	0.620727168427	0.777624487574	0.191401988347	0.530328506832	0.710311752759	0.240132891041	0.607522539847	0.617125262445	0.164783579653	0.649252786757	0.822447474413	-0.084330642483	0.703395121420	0.681940830529	-0.062156418950	0.581646905495	0.729117047567	-0.135321568956	0.599219693938	0.951453369422	-0.061078936837	0.619790859276	0.937820674343	0.175437549988	0.539110669953	1.461206297739	0.208814414707	0.572236882521	1.435809828142	-0.108326105217	0.519141364352	1.482782854989	0.062559772052	0.624226044581	1.371862890940	0.060283234203	0.666065461651	1.191999124319	0.054479638630	0.415644329137	1.331095203443	0.059634376849	0.527378216006	1.177538934662	-0.295017434748	0.613570329951	0.987786989633	-0.433236672219	0.502273413134	1.185222265479	0.406500991742	0.661236998875	0.988345317393	0.415907439342	
3	0.013315068493	0.416261959249	0.049449718655	0.096309797179	0.571766847610	0.098753567871	0.167386384939	0.469512628907	0.037841123454	0.175884587235	0.677406154758	0.055572012508	0.217888133566	0.759941330368	0.057770729123	-0.041299274397	0.873472891190	0.190204276614	-0.077663732795	0.836417316884	0.079383913284	-0.099317444467	0.993543622784	0.220967608101	-0.081680651702	0.529761362850	0.359427434391	0.181033625458	0.520657379188	0.239752791181	0.172581849818	0.441324753866	0.293991803060	0.210296319116	0.395303885327	0.359832231255	0.141740024102	0.751981434597	0.422388126713	-0.083238967799	0.783029545925	0.296371503570	-0.075467102969	0.627217169542	0.354075454096	-0.065400429649	0.707537834809	0.317745772446	-0.124399497537	0.562190631253	0.465955382914	0.170821112424	0.733025585273	0.541775665683	-0.073765494834	0.620718871324	0.777618798711	0.191409608212	0.530315939114	0.710317059171	0.240166021549	0.607499225572	0.617124491010	0.164790782851	0.649176348245	0.822392491199	-0.084350017094	0.703309373366	0.681898504379	-0.062204469986	0.581538763529	0.729059860823	-0.135289807499	0.599185939138	0.951411469718	-0.061085427344	0.619788458996	0.937811022004	0.175434651171	0.539222596606	1.461193684224	0.208796120909	0.572298184811	1.435780411970	-0.108294023219	0.519254500362	1.482775793301	0.062537907587	0.624294213010	1.371822373128	0.060263110581	0.666083248360	1.191946561112	0.054452902608	0.415709070565	1.331116170551	0.059629984725	0.527383844313	1.177551961506	-0.295040422852	0.613572843695	0.987787587520	-0.433246152342	0.502305459563	1.185242190470	0.406512726610	0.661239711970	0.988346959951	0.415895841537	
4	0.019972602740	0.416262818475	0.049449776928	0.096309015256	0.571765414740	0.098755870415	0.167389207308	0.469513371758	0.037841499635	0.175886646307	0.677409049888	0.055572581869	0.217887286951	0.760175707895	0.057602882381	-0.040589668217	0.872889769548	0.190251320675	-0.078593507692	0.835487501142	0.079475691797	-0.099843815691	0.992710638287	0.221070968546	-0.084768984319	0.529745352091	0.359430294281	0.181048954192	0.520649978790	0.239757918019	0.172588189138	0.441315600588	0.293990336225	0.210307715330	0.395283894085	0.359828631829	0.141749658405	0.751878477158	0.422345113447	-0.083224962286	0.782898512064	0.296325397907	-0.075499009651	0.627180654259	0.354055631614	-0.065186251930	0.707381057263	0.317678566927	-0.124336262444	0.562174038693	0.465963184379	0.170848588999	0.732948360414	0.541731872950	-0.073800709958	0.620709432253	0.777613079584	0.191420141915	0.530301303616	0.710322908654	0.240203251798	0.607474672376	0.617123253622	0.164799709692	0.649097783533	0.822333811995	-0.084369328154	0.703222019820	0.681853329656	-0.062257854361	0.581425561794	0.728999358360	-0.135257632424	0.599153292061	0.951366497576	-0.061090150884	0.619785282385	0.937801478901	0.175433862673	0.539334732502	1.461180731666	0.208776026405	0.572361883090	1.435751723718	-0.108264072424	0.519369563560	1.482768105197	0.062513369843	0.624363727759	1.371780202874	0.060242157654	0.666101486195	1.191892569373	0.054426513392	0.415774578220	1.331137147449	0.059623405973	0.527389934884	1.177565746960	-0.295065167867	0.613575186887	0.987788067965	-0.433256487354	0.502337617956	1.185262189018	0.406523274693	0.661242344753	0.988348341600	0.415884131002	
